<svg xmlns="http://www.w3.org/2000/svg" viewBox="0 0 800 480" fill="none">
  <rect width="800" height="480" fill="#f5f5f4"/>
  <rect x="24" y="24" width="752" height="48" rx="8" fill="#e7e5e4"/>
  <rect x="24" y="96" width="220" height="360" rx="8" fill="#ffffff" stroke="#e7e5e4"/>
  <rect x="40" y="116" width="80" height="8" rx="4" fill="#0d9488"/>
  <rect x="40" y="136" width="140" height="6" rx="3" fill="#d6d3d1"/>
  <rect x="40" y="156" width="120" height="6" rx="3" fill="#d6d3d1"/>
  <rect x="40" y="176" width="130" height="6" rx="3" fill="#d6d3d1"/>
  <rect x="260" y="96" width="516" height="200" rx="8" fill="#ffffff" stroke="#e7e5e4"/>
  <rect x="280" y="120" width="120" height="10" rx="5" fill="#0c0a09"/>
  <rect x="280" y="144" width="200" height="6" rx="3" fill="#d6d3d1"/>
  <rect x="280" y="180" width="460" height="40" rx="6" fill="#f0fdfa" stroke="#99f6e4"/>
  <rect x="280" y="236" width="320" height="40" rx="6" fill="#fafaf9" stroke="#e7e5e4"/>
  <rect x="260" y="316" width="250" height="140" rx="8" fill="#ffffff" stroke="#e7e5e4"/>
  <rect x="280" y="336" width="100" height="8" rx="4" fill="#0d9488"/>
  <rect x="280" y="356" width="180" height="6" rx="3" fill="#d6d3d1"/>
  <rect x="530" y="316" width="246" height="140" rx="8" fill="#ffffff" stroke="#e7e5e4"/>
  <rect x="550" y="336" width="90" height="8" rx="4" fill="#0d9488"/>
  <rect x="550" y="356" width="160" height="6" rx="3" fill="#d6d3d1"/>
  <text x="400" y="460" text-anchor="middle" fill="#a8a29e" font-family="system-ui,sans-serif" font-size="12">Academic platform UI  screenshot coming soon</text>
</svg>
