<svg xmlns="http://www.w3.org/2000/svg" viewBox="0 0 800 480" fill="none">
  <rect width="800" height="480" fill="#f5f5f4"/>
  <rect x="24" y="24" width="752" height="48" rx="8" fill="#1c1917"/>
  <rect x="40" y="40" width="100" height="8" rx="4" fill="#2dd4bf"/>
  <rect x="24" y="96" width="180" height="360" rx="8" fill="#ffffff" stroke="#e7e5e4"/>
  <rect x="40" y="116" width="60" height="6" rx="3" fill="#0d9488"/>
  <rect x="40" y="140" width="120" height="6" rx="3" fill="#d6d3d1"/>
  <rect x="40" y="164" width="100" height="6" rx="3" fill="#d6d3d1"/>
  <rect x="40" y="200" width="140" height="32" rx="6" fill="#f0fdfa"/>
  <rect x="40" y="248" width="140" height="32" rx="6" fill="#fafaf9" stroke="#e7e5e4"/>
  <rect x="220" y="96" width="556" height="220" rx="8" fill="#ccfbf1" stroke="#5eead4"/>
  <circle cx="500" cy="206" r="60" fill="#99f6e4" opacity="0.5"/>
  <circle cx="420" cy="180" r="8" fill="#0d9488"/>
  <circle cx="560" cy="220" r="6" fill="#0f766e"/>
  <circle cx="480" cy="250" r="5" fill="#14b8a6"/>
  <rect x="220" y="336" width="170" height="120" rx="8" fill="#ffffff" stroke="#e7e5e4"/>
  <rect x="240" y="356" width="80" height="20" rx="4" fill="#0d9488" opacity="0.2"/>
  <rect x="240" y="386" width="120" height="6" rx="3" fill="#d6d3d1"/>
  <rect x="410" y="336" width="170" height="120" rx="8" fill="#ffffff" stroke="#e7e5e4"/>
  <rect x="430" y="356" width="80" height="20" rx="4" fill="#0d9488" opacity="0.15"/>
  <rect x="600" y="336" width="176" height="120" rx="8" fill="#ffffff" stroke="#e7e5e4"/>
  <rect x="620" y="356" width="80" height="20" rx="4" fill="#0d9488" opacity="0.25"/>
  <text x="400" y="460" text-anchor="middle" fill="#a8a29e" font-family="system-ui,sans-serif" font-size="12">Environmental data dashboard  screenshot coming soon</text>
</svg>
